<?xml version="1.0" encoding="utf-8"?>
<!-- Generator: Adobe Illustrator 26.0.3, SVG Export Plug-In . SVG Version: 6.00 Build 0)  -->
<svg version="1.1" id="Layer_1" xmlns="http://www.w3.org/2000/svg" xmlns:xlink="http://www.w3.org/1999/xlink" x="0px" y="0px"
	 viewBox="0 0 1920 1080" style="enable-background:new 0 0 1920 1080;" xml:space="preserve">
<style type="text/css">
	.st0{fill:none;}
	.st1{stroke:#000000;stroke-miterlimit:10;}
	.st2{fill:#FFFFFF;stroke:#FFFFFF;stroke-miterlimit:10;}
	.st3{fill:#FFFFFF;}
	.st4{fill:#E5C8C1;stroke:#E5C8C1;stroke-miterlimit:10;}
	.st5{fill:#D86545;stroke:#D86545;stroke-miterlimit:10;}
	.st6{fill:#C4360A;stroke:#C4360A;stroke-miterlimit:10;}
</style>
<line class="st0" x1="-172" y1="-451.5" x2="-239" y2="-383.4"/>
<line class="st0" x1="-149.3" y1="-350.8" x2="-243" y2="-255.5"/>
<line class="st0" x1="-36" y1="-220.5" x2="-99.6" y2="-271.5"/>
<line class="st0" x1="-239" y1="-383.4" x2="-319" y2="-447.5"/>
<line class="st0" x1="-219.2" y1="-181.2" x2="-277" y2="-137.5"/>
<line class="st0" x1="-48" y1="-310.5" x2="-99.6" y2="-271.5"/>
<line class="st0" x1="-149.3" y1="-350.8" x2="-258" y2="-479.5"/>
<line class="st0" x1="-146" y1="-94.5" x2="-219.2" y2="-181.2"/>
<polyline class="st1" points="460.2,12.4 460.2,12.5 460.2,12.5 460.2,12.5 "/>
<polyline class="st1" points="460.2,12.4 460.2,12.5 460.2,12.5 460.2,12.5 "/>
<line class="st2" x1="224.9" y1="581.6" x2="224.3" y2="581.5"/>
<polygon class="st2" points="148.3,588.8 229.4,651.3 141.9,611.2 122.6,602.4 130,574.7 135.4,554.4 144.1,521.6 164.3,532.9 
	236.7,573.4 250.6,612.2 224.3,581.5 156.3,560.8 "/>
<polygon class="st2" points="356.7,649.7 435.5,589.4 427.5,560.3 360,581.2 333.3,612.6 342.1,586.7 346.5,573.7 346.5,573.7 
	420,533.1 439.3,522.4 461,602 "/>
<line class="st1" x1="628.8" y1="10.5" x2="628.8" y2="10.5"/>
<line class="st1" x1="628.8" y1="10.5" x2="628.8" y2="10.5"/>
<line class="st2" x1="361.3" y1="612.6" x2="361.3" y2="612.6"/>
<line class="st2" x1="361.3" y1="612.6" x2="361.3" y2="612.6"/>
<polygon class="st2" points="434.9,431.7 429.6,514.3 335,566.5 311.3,657.7 272,657.4 248.3,566.4 154.4,514.1 149.9,431.6 
	197.1,369.7 238.1,461.7 196.5,486.1 213.3,460 213.3,460 192.5,409.3 170.3,435.1 174.7,494.5 174.7,494.6 264,556.5 264,556.5 
	284.6,643.1 299.4,643.6 319.9,555.2 410,493.1 413.3,435.2 390.6,407.9 371.1,459.1 387.6,486.5 345.6,461.9 386.9,371.6 "/>
<polyline class="st2" points="264,556.5 264,556.5 264,556.5 "/>
<g>
	<g>
		<path class="st3" d="M538.6,635.5v-222H574v222H538.6z M647,635.5l-69.5-168.9h-15.7v-53.2h22.5l69.5,168.9h8.5v53.2H647z
			 M657.2,635.5v-222h35.5v222H657.2z"/>
		<path class="st3" d="M745.2,635.5v-222h35.5v222H745.2z M745.2,443.2v-29.7h160.2v29.7H745.2z M745.2,539.2v-29.7h129.5v29.7
			H745.2z M745.2,635.5v-29.7h160.2v29.7H745.2z"/>
		<path class="st3" d="M1024.7,638.6c-59.5,0-89.3-37.5-89.3-112.6c0-77.1,29.8-115.7,89.3-115.7c59.5,0,89.3,38.6,89.3,115.7
			C1114,601.1,1084.3,638.6,1024.7,638.6z M1024.7,609.8c35.2,0,52.8-27.9,52.8-83.8c0-58-17.6-86.9-52.8-86.9
			c-35.2,0-52.8,29-52.8,86.9C971.9,581.9,989.5,609.8,1024.7,609.8z"/>
	</g>
</g>
<g>
	<g>
		<path class="st3" d="M1144.9,642.7v-222h35.5v222H1144.9z M1144.9,450.3v-29.7h160.2v29.7H1144.9z M1144.9,555.7V526h129.5v29.7
			H1144.9z"/>
		<path class="st3" d="M1421,645.8c-59.5,0-89.3-37.5-89.3-112.6c0-77.1,29.8-115.7,89.3-115.7c59.5,0,89.3,38.6,89.3,115.7
			C1510.3,608.3,1480.6,645.8,1421,645.8z M1421,617c35.2,0,52.8-27.9,52.8-83.8c0-58-17.6-86.9-52.8-86.9
			c-35.2,0-52.8,29-52.8,86.9C1368.2,589.1,1385.8,617,1421,617z"/>
	</g>
</g>
<polygon class="st4" points="1786.4,626.7 1707.8,626.4 1660.5,567.8 1700.3,518.4 "/>
<line class="st2" x1="1389.2" y1="670.8" x2="1388.5" y2="670"/>
<polyline class="st5" points="1612,407.5 1659.9,467.6 1619.9,517.4 1530.7,406.8 "/>
<line class="st2" x1="843.4" y1="452.8" x2="843.2" y2="453"/>
<polyline class="st3" points="1707.7,408.2 1659.9,467.6 1700.3,518.4 1788.5,408.8 "/>
<line class="st2" x1="912.7" y1="452.8" x2="912.3" y2="453.4"/>
<polygon class="st6" points="1700.3,518.4 1660.5,567.8 1612.5,627.5 1612.1,627.9 1530.8,628.1 1531,627.9 1619.9,517.4 
	1659.9,467.6 "/>
<line class="st0" x1="487.9" y1="5.9" x2="394.8" y2="5.1"/>
<g>
	<g>
		<path class="st3" d="M118.5,705.6l9.1-22.7h3l9.1,22.7H136l-6.9-18.3l-6.9,18.3H118.5z M122.7,700.6v-3h13v3H122.7z"/>
		<path class="st3" d="M183.7,705.8c-1.7,0-3.2-0.4-4.5-1.1c-1.3-0.7-2.3-1.7-3-3c-0.7-1.3-1.1-2.8-1.1-4.5v-6.2
			c0-1.7,0.4-3.2,1.1-4.5s1.7-2.3,3-3c1.3-0.7,2.8-1.1,4.5-1.1c1.4,0,2.7,0.3,3.9,0.8c1.2,0.6,2.2,1.3,3,2.4c0.8,1,1.3,2.2,1.6,3.5
			h-3.6c-0.2-0.7-0.6-1.4-1.1-1.9c-0.5-0.5-1.1-1-1.8-1.3c-0.7-0.3-1.4-0.5-2.1-0.5c-1.5,0-2.7,0.5-3.7,1.5c-0.9,1-1.4,2.3-1.4,3.9
			v6.2c0,1.6,0.5,2.9,1.4,3.9c0.9,1,2.2,1.5,3.7,1.5c1.1,0,2.1-0.3,3.1-0.9c1-0.6,1.6-1.5,1.9-2.7h3.6c-0.3,1.4-0.8,2.5-1.6,3.5
			c-0.8,1-1.8,1.8-3,2.4C186.5,705.5,185.1,705.8,183.7,705.8z"/>
		<path class="st3" d="M237.5,705.8c-1.7,0-3.2-0.4-4.5-1.1c-1.3-0.7-2.3-1.7-3-3c-0.7-1.3-1.1-2.8-1.1-4.5v-6.2
			c0-1.7,0.4-3.2,1.1-4.5s1.7-2.3,3-3c1.3-0.7,2.8-1.1,4.5-1.1c1.4,0,2.7,0.3,3.9,0.8c1.2,0.6,2.2,1.3,3,2.4c0.8,1,1.3,2.2,1.6,3.5
			h-3.6c-0.2-0.7-0.6-1.4-1.1-1.9c-0.5-0.5-1.1-1-1.8-1.3c-0.7-0.3-1.4-0.5-2.1-0.5c-1.5,0-2.7,0.5-3.7,1.5c-0.9,1-1.4,2.3-1.4,3.9
			v6.2c0,1.6,0.5,2.9,1.4,3.9c0.9,1,2.2,1.5,3.7,1.5c1.1,0,2.1-0.3,3.1-0.9c1-0.6,1.6-1.5,1.9-2.7h3.6c-0.3,1.4-0.8,2.5-1.6,3.5
			c-0.8,1-1.8,1.8-3,2.4C240.2,705.5,238.9,705.8,237.5,705.8z"/>
		<path class="st3" d="M283.1,705.6v-22.7h3.5v22.7H283.1z M284.8,685.9v-3H299v3H284.8z M284.8,695.8v-3h12.4v3H284.8z
			 M284.8,705.6v-3H299v3H284.8z"/>
		<path class="st3" d="M336.1,705.6v-22.7h3.5v22.7H336.1z M337.9,705.6v-3H352v3H337.9z"/>
		<path class="st3" d="M388.3,705.6v-22.7h3.5v22.7H388.3z M390,685.9v-3h14.2v3H390z M390,695.8v-3h12.4v3H390z M390,705.6v-3h14.2
			v3H390z"/>
		<path class="st3" d="M441.3,705.6v-22.8h3.5v22.8H441.3z M442.8,696v-3h8.5c1,0,1.8-0.3,2.4-1s0.9-1.5,0.9-2.6s-0.3-1.9-0.9-2.6
			s-1.4-1-2.4-1h-8.5v-3h8.3c1.4,0,2.7,0.3,3.8,0.8c1.1,0.5,1.9,1.3,2.5,2.3c0.6,1,0.9,2.1,0.9,3.5c0,1.3-0.3,2.5-0.9,3.4
			c-0.6,1-1.4,1.8-2.5,2.3c-1.1,0.5-2.3,0.8-3.8,0.8H442.8z M455.2,705.6l-5.7-10.3l3.5-0.7l6.3,11H455.2z"/>
		<path class="st3" d="M493.8,705.6l9.1-22.7h3l9.1,22.7h-3.8l-6.9-18.3l-6.9,18.3H493.8z M498,700.6v-3h13v3H498z"/>
		<path class="st3" d="M547.6,685.9v-3H565v3H547.6z M554.6,705.6v-20.9h3.5v20.9H554.6z"/>
		<path class="st3" d="M603.4,682.8v22.7h-3.5v-22.7H603.4z"/>
		<path class="st3" d="M641.7,705.6v-22.7h3.2l12.1,17.6l-0.4,0.4v-18h3.4v22.7h-3.2l-12.1-17.3l0.4-0.4v17.7H641.7z"/>
		<path class="st3" d="M706.6,693.3h8.6v4c0,1.7-0.4,3.2-1.1,4.5c-0.7,1.3-1.7,2.3-3,3c-1.3,0.7-2.8,1.1-4.6,1.1
			c-1.8,0-3.3-0.3-4.6-1c-1.3-0.7-2.3-1.6-3.1-2.8c-0.7-1.2-1.1-2.6-1.1-4.2v-6.7c0-1.7,0.4-3.2,1.1-4.5s1.7-2.3,3-3
			c1.3-0.7,2.8-1.1,4.6-1.1c1.4,0,2.8,0.3,3.9,0.8c1.2,0.6,2.2,1.3,3,2.4c0.8,1,1.4,2.2,1.6,3.5h-3.8c-0.3-1.2-0.9-2.1-1.9-2.7
			c-0.9-0.6-1.9-0.9-2.9-0.9c-1.5,0-2.8,0.5-3.7,1.5c-0.9,1-1.4,2.3-1.4,3.9v6.7c0,1.5,0.5,2.7,1.4,3.6s2.2,1.3,3.8,1.3
			c1.5,0,2.8-0.5,3.7-1.4c0.9-0.9,1.4-2.2,1.4-3.9v-1h-5V693.3z"/>
		<path class="st3" d="M809.5,682.8l-7.6,13.5v9.2h-3.5v-9.2l-7.6-13.5h3.9l5.4,10.3l5.4-10.3H809.5z"/>
		<path class="st3" d="M852.4,705.8c-1.8,0-3.3-0.3-4.6-1c-1.3-0.7-2.3-1.7-3-2.9c-0.7-1.3-1.1-2.7-1.1-4.4V691
			c0-1.7,0.4-3.2,1.1-4.4s1.7-2.2,3-2.9c1.3-0.7,2.8-1,4.6-1s3.3,0.3,4.6,1s2.3,1.7,3,2.9c0.7,1.3,1.1,2.7,1.1,4.4v6.4
			c0,1.7-0.4,3.1-1.1,4.4c-0.7,1.3-1.7,2.2-3,2.9C855.7,705.5,854.2,705.8,852.4,705.8z M852.4,702.7c1.6,0,2.8-0.5,3.7-1.4
			s1.4-2.2,1.4-3.7v-6.7c0-1.6-0.5-2.8-1.4-3.7c-0.9-0.9-2.2-1.4-3.7-1.4c-1.5,0-2.8,0.5-3.7,1.4c-0.9,0.9-1.4,2.2-1.4,3.7v6.7
			c0,1.5,0.5,2.8,1.4,3.7S850.9,702.7,852.4,702.7z"/>
		<path class="st3" d="M907.3,705.8c-2.8,0-4.9-0.7-6.4-2.2c-1.5-1.5-2.3-3.6-2.3-6.2v-14.5h3.5v14.6c0,1.7,0.5,2.9,1.4,3.8
			s2.2,1.4,3.9,1.4c1.7,0,3-0.5,3.9-1.4c0.9-0.9,1.4-2.2,1.4-3.8v-14.6h3.5v14.5c0,2.7-0.8,4.8-2.3,6.2
			C912.2,705.1,910.1,705.8,907.3,705.8z"/>
		<path class="st3" d="M954,705.6v-22.8h3.5v22.8H954z M955.5,696v-3h8.5c1,0,1.8-0.3,2.4-1s0.9-1.5,0.9-2.6s-0.3-1.9-0.9-2.6
			s-1.4-1-2.4-1h-8.5v-3h8.3c1.4,0,2.7,0.3,3.8,0.8c1.1,0.5,1.9,1.3,2.5,2.3c0.6,1,0.9,2.1,0.9,3.5c0,1.3-0.3,2.5-0.9,3.4
			c-0.6,1-1.4,1.8-2.5,2.3c-1.1,0.5-2.3,0.8-3.8,0.8H955.5z M967.9,705.6l-5.7-10.3l3.5-0.7l6.3,11H967.9z"/>
		<path class="st3" d="M1050.4,705.6v-22.7h3.5v22.7H1050.4z M1052.7,705.6v-3h5.6c1.8,0,3.2-0.4,4.3-1.3c1-0.9,1.5-2.1,1.5-3.7
			v-6.7c0-1.6-0.5-2.8-1.5-3.7c-1-0.9-2.4-1.3-4.3-1.3h-5.6v-3h5.5c3,0,5.3,0.7,7,2.1s2.5,3.4,2.5,6v6.4c0,1.7-0.4,3.2-1.1,4.4
			c-0.7,1.2-1.8,2.1-3.2,2.8c-1.4,0.6-3.1,1-5.1,1H1052.7z"/>
		<path class="st3" d="M1108.9,682.8v22.7h-3.5v-22.7H1108.9z"/>
		<path class="st3" d="M1155.6,693.3h8.6v4c0,1.7-0.4,3.2-1.1,4.5c-0.7,1.3-1.7,2.3-3,3c-1.3,0.7-2.8,1.1-4.6,1.1
			c-1.8,0-3.3-0.3-4.6-1c-1.3-0.7-2.3-1.6-3.1-2.8c-0.7-1.2-1.1-2.6-1.1-4.2v-6.7c0-1.7,0.4-3.2,1.1-4.5c0.7-1.3,1.7-2.3,3-3
			c1.3-0.7,2.8-1.1,4.6-1.1c1.4,0,2.8,0.3,3.9,0.8c1.2,0.6,2.2,1.3,3,2.4c0.8,1,1.4,2.2,1.6,3.5h-3.8c-0.3-1.2-0.9-2.1-1.9-2.7
			c-0.9-0.6-1.9-0.9-2.9-0.9c-1.5,0-2.8,0.5-3.7,1.5c-0.9,1-1.4,2.3-1.4,3.9v6.7c0,1.5,0.5,2.7,1.4,3.6c1,0.9,2.2,1.3,3.8,1.3
			c1.5,0,2.8-0.5,3.7-1.4c0.9-0.9,1.4-2.2,1.4-3.9v-1h-5V693.3z"/>
		<path class="st3" d="M1205.4,682.8v22.7h-3.5v-22.7H1205.4z"/>
		<path class="st3" d="M1240.3,685.9v-3h17.5v3H1240.3z M1247.3,705.6v-20.9h3.5v20.9H1247.3z"/>
		<path class="st3" d="M1290.3,705.6l9.1-22.7h3l9.1,22.7h-3.8l-6.9-18.3l-6.9,18.3H1290.3z M1294.5,700.6v-3h13v3H1294.5z"/>
		<path class="st3" d="M1347.4,705.6v-22.7h3.5v22.7H1347.4z M1349.2,705.6v-3h14.2v3H1349.2z"/>
		<path class="st3" d="M1444.9,705.8c-1.3,0-2.5-0.2-3.6-0.7c-1.1-0.5-2-1.2-2.7-2.1l2.8-1.9c0.3,0.5,0.8,0.9,1.4,1.2
			c0.6,0.3,1.3,0.4,2.1,0.4c1.4,0,2.4-0.4,3.1-1.2s1.1-1.9,1.1-3.3v-15.5h3.5v15.5c0,2.4-0.7,4.2-2,5.5S1447.3,705.8,1444.9,705.8z"
			/>
		<path class="st3" d="M1499.1,705.8c-1.8,0-3.3-0.3-4.6-1c-1.3-0.7-2.3-1.7-3-2.9c-0.7-1.3-1.1-2.7-1.1-4.4V691
			c0-1.7,0.4-3.2,1.1-4.4c0.7-1.3,1.7-2.2,3-2.9s2.8-1,4.6-1s3.3,0.3,4.6,1s2.3,1.7,3,2.9s1.1,2.7,1.1,4.4v6.4
			c0,1.7-0.4,3.1-1.1,4.4c-0.7,1.3-1.7,2.2-3,2.9C1502.4,705.5,1500.9,705.8,1499.1,705.8z M1499.1,702.7c1.6,0,2.8-0.5,3.7-1.4
			s1.4-2.2,1.4-3.7v-6.7c0-1.6-0.5-2.8-1.4-3.7c-0.9-0.9-2.2-1.4-3.7-1.4c-1.5,0-2.8,0.5-3.7,1.4c-0.9,0.9-1.4,2.2-1.4,3.7v6.7
			c0,1.5,0.5,2.8,1.4,3.7S1497.6,702.7,1499.1,702.7z"/>
		<path class="st3" d="M1553.9,705.8c-2.8,0-4.9-0.7-6.4-2.2c-1.5-1.5-2.3-3.6-2.3-6.2v-14.5h3.5v14.6c0,1.7,0.5,2.9,1.4,3.8
			s2.2,1.4,3.9,1.4c1.7,0,3-0.5,3.9-1.4c0.9-0.9,1.4-2.2,1.4-3.8v-14.6h3.5v14.5c0,2.7-0.8,4.8-2.3,6.2
			C1558.9,705.1,1556.7,705.8,1553.9,705.8z"/>
		<path class="st3" d="M1600.6,705.6v-22.8h3.5v22.8H1600.6z M1602.1,696v-3h8.5c1,0,1.8-0.3,2.4-1c0.6-0.6,0.9-1.5,0.9-2.6
			s-0.3-1.9-0.9-2.6c-0.6-0.6-1.4-1-2.4-1h-8.5v-3h8.3c1.4,0,2.7,0.3,3.8,0.8c1.1,0.5,1.9,1.3,2.5,2.3c0.6,1,0.9,2.1,0.9,3.5
			c0,1.3-0.3,2.5-0.9,3.4c-0.6,1-1.4,1.8-2.5,2.3c-1.1,0.5-2.3,0.8-3.8,0.8H1602.1z M1614.6,705.6l-5.7-10.3l3.5-0.7l6.3,11H1614.6z
			"/>
		<path class="st3" d="M1655.5,705.6v-22.7h3.2l12.1,17.6l-0.4,0.4v-18h3.4v22.7h-3.2l-12.1-17.3l0.4-0.4v17.7H1655.5z"/>
		<path class="st3" d="M1712.1,705.6v-22.7h3.5v22.7H1712.1z M1713.8,685.9v-3h14.2v3H1713.8z M1713.8,695.8v-3h12.4v3H1713.8z
			 M1713.8,705.6v-3h14.2v3H1713.8z"/>
		<path class="st3" d="M1780.1,682.8l-7.6,13.5v9.2h-3.5v-9.2l-7.6-13.5h3.9l5.4,10.3l5.4-10.3H1780.1z"/>
	</g>
</g>
</svg>
